<?xml version="1.0" encoding="UTF-8"?>
<svg version="1.1" xmlns="http://www.w3.org/2000/svg" xmlns:xlink="http://www.w3.org/1999/xlink" viewBox="395 240 845 845" xml:space="preserve">
  <g>
<path fill="#03246F" d="M1227.718,685.386l-48.883-195.138l-0.119-0.225c-9.383-35.676-26.303-69.934-50.947-100.354l-0.894-1.103
		L954.324,285.145l-0.241-0.074c-31.86-18.592-68.047-30.851-106.986-34.937l-1.411-0.148l-194.187,48.642l-0.955,0.241
		l-0.247,0.132c-35.669,9.383-69.918,26.296-100.329,50.934l-1.106,0.894L445.946,522.536l-0.501,0.842l-0.074,0.244
		c-18.592,31.864-30.854,68.05-34.936,106.989l-0.148,1.411L459.17,827.16l0.119,0.225c9.383,35.676,26.303,69.934,50.947,100.354
		l0.894,1.102l172.548,103.421l0.247,0.077c31.86,18.592,68.047,30.851,106.982,34.933l1.411,0.148l195.135-48.883l0.219-0.116
		c35.682-9.383,69.947-26.306,100.367-50.953l1.103-0.894l103.424-172.555l0.074-0.247c18.588-31.86,30.848-68.044,34.93-106.976
		L1227.718,685.386z M896.691,735.726c-18.813,18.813-43.782,30.112-70.317,31.822l0.019,0.376
		c-2.305,0.061-4.596,0.177-6.917,0.177c-26.605,0-52.255-9.665-72.226-27.219l-0.254,0.28c-1.675-1.585-3.375-3.128-5.014-4.767
		c-18.813-18.813-30.112-43.786-31.822-70.317l-0.376,0.019c-0.061-2.305-0.174-4.596-0.174-6.917
		c0-26.605,9.665-52.255,27.219-72.226l-0.28-0.254c1.585-1.675,3.124-3.375,4.767-5.014c18.817-18.813,43.786-30.115,70.32-31.825
		l-0.019-0.376c2.305-0.061,4.596-0.177,6.917-0.177c26.602,0,52.252,9.666,72.226,27.219l0.26-0.286
		c1.675,1.588,3.375,3.137,5.011,4.773c18.813,18.817,30.112,43.789,31.819,70.317l0.379-0.019c0.061,2.305,0.174,4.596,0.174,6.917
		c0,26.602-9.665,52.252-27.219,72.226l0.286,0.26C899.876,732.389,898.327,734.087,896.691,735.726z"/>
	<path fill="#00E7FF" d="M1116.165,400.883l-89.435-53.605c16.798,20.472,30.587,43.4,40.671,67.993
		c13.24,32.236,19.955,66.398,19.955,101.534c0,147.428-120.171,267.368-267.882,267.368c-3.526,0-7.036-0.148-10.524-0.44
		c35.162,17.277,74.261,26.152,114.35,25.58c65.791-0.926,127.651-27.065,174.188-73.602
		C1188.468,644.725,1196.391,501.029,1116.165,400.883z"/>
	<path fill="#00E7FF" d="M829.052,533.677c-35.158-17.277-74.132-26.161-114.353-25.58c-65.788,0.926-127.647,27.065-174.184,73.602
		c-90.981,90.982-98.905,234.681-18.678,334.827l89.432,53.605c-16.798-20.472-30.584-43.397-40.671-67.993
		c-13.24-32.24-19.951-66.401-19.951-101.534c0-147.428,120.171-267.368,267.882-267.368
		C822.051,533.236,825.564,533.384,829.052,533.677z"/>
	<path fill="#1878DE" d="M969.605,554.406c-0.926-65.791-27.065-127.651-73.602-174.188
		c-90.975-90.975-234.675-98.905-334.827-18.678l-53.605,89.435c20.472-16.798,43.4-30.584,67.989-40.674
		c32.243-13.24,66.405-19.951,101.537-19.951c147.428,0,267.371,120.171,267.371,267.882c0,3.526-0.148,7.036-0.444,10.527
		C961.302,633.597,970.17,594.601,969.605,554.406z"/>
	<path fill="#1878DE" d="M1130.427,866.43c-20.472,16.798-43.4,30.588-67.993,40.677c-32.236,13.24-66.402,19.951-101.537,19.951
		c-147.425,0-267.368-120.171-267.368-267.882c0-3.526,0.148-7.039,0.444-10.53c-17.277,35.158-26.145,74.161-25.58,114.356
		c0.926,65.784,27.068,127.651,73.598,174.188c90.985,90.985,234.688,98.902,334.83,18.678L1130.427,866.43z"/>
	<path fill="#1DA1EB" d="M1070.371,516.232c0-128.666-96.005-235.88-223.55-249.965l-101.145,25.339
		c26.351,2.597,52.31,9.058,76.835,19.315c32.163,13.439,61.066,32.85,85.906,57.691c50.526,50.523,78.298,117.734,78.198,189.25
		c-0.096,71.461-27.997,138.663-78.561,189.227c-2.491,2.494-5.079,4.873-7.753,7.133c37.074-12.645,70.921-33.95,98.947-62.773
		C1045.109,644.272,1070.371,582.049,1070.371,516.232z"/>
	<path fill="#1DA1EB" d="M567.631,801.176c0,128.666,96.005,235.88,223.55,249.965l101.145-25.339
		c-26.354-2.597-52.313-9.058-76.838-19.315c-32.159-13.439-61.059-32.847-85.903-57.691
		c-104.247-104.244-104.086-274.028,0.36-378.477c2.491-2.494,5.079-4.873,7.753-7.129c-37.077,12.645-70.918,33.95-98.943,62.773
		C592.889,673.137,567.631,735.359,567.631,801.176z"/>
	<path fill="#055ECE" d="M718.158,491.087c71.458,0.096,138.666,27.997,189.227,78.561c2.491,2.491,4.87,5.079,7.129,7.75
		c-12.648-37.077-33.95-70.918-62.773-98.94c-47.173-45.865-109.396-71.123-175.213-71.123
		c-128.663,0-235.877,96.009-249.965,223.55l25.339,101.142c2.6-26.354,9.058-52.313,19.315-76.835
		c13.442-32.166,32.85-61.069,57.691-85.906c50.433-50.436,117.5-78.198,188.874-78.198
		C717.907,491.087,718.029,491.087,718.158,491.087z"/>
	<path fill="#055ECE" d="M730.616,747.76c-2.494-2.494-4.873-5.082-7.133-7.756c12.645,37.077,33.95,70.924,62.773,98.947
		c47.173,45.865,109.396,71.123,175.213,71.123c128.666,0,235.88-96.009,249.968-223.55l-25.339-101.142
		c-2.6,26.354-9.058,52.313-19.315,76.835c-13.439,32.159-32.847,61.062-57.691,85.906
		c-52.053,52.053-120.466,78.076-188.906,78.079C851.565,826.206,782.907,800.054,730.616,747.76z"/>

  </g>
</svg>
