<?xml version="1.0" encoding="iso-8859-1"?>
<!-- Generator: Adobe Illustrator 30.3.0, SVG Export Plug-In . SVG Version: 9.03 Build 0)  -->
<svg version="1.1" id="Camada_1" xmlns="http://www.w3.org/2000/svg" xmlns:xlink="http://www.w3.org/1999/xlink" x="0px" y="0px"
	 viewBox="0 0 3276.523 1317.408" enable-background="new 0 0 3276.523 1317.408" xml:space="preserve">
<g>
	<path fill="#FFFFFF" d="M1406.374,572.731c8.139-8.312,17.93-14.612,29.389-18.91c11.453-4.291,24.114-6.441,37.981-6.441
		c12.661,0,24.487,1.038,35.496,3.118c10.999,2.076,20.871,4.78,29.614,8.103l8.592-45.721c-7.538-3.324-18.016-6.233-31.423-8.727
		c-13.417-2.494-28.562-3.741-45.441-3.741c-23.513,0-44.84,3.603-63.981,10.807c-19.144,7.21-35.345,17.322-48.607,30.34
		c-13.266,13.028-23.51,28.678-30.745,46.968c-7.235,18.286-10.852,38.517-10.852,60.68c0,20.231,3.086,39.07,9.27,56.527
		c6.175,17.457,15.445,32.625,27.807,45.512c12.356,12.886,27.955,23.002,46.797,30.34c18.833,7.338,40.764,11.016,65.788,11.016
		c16.878,0,32.33-1.18,46.344-3.533c14.018-2.35,32.783-8.521,32.783-8.521l-2.957-45.007c0,0-22.532,10.093-68.481,10.093
		c-47.996,0-93.145-37.591-93.145-98.924c0-16.068,2.26-30.34,6.782-42.808C1391.906,591.435,1398.235,581.046,1406.374,572.731z"/>
	<path fill="#FFFFFF" d="M1735.27,608.204c-9.82-8.557-21.067-14.805-33.728-18.746c-12.668-3.934-25.827-5.908-39.491-5.908
		c-13.661,0-26.894,1.974-39.703,5.908c-12.806,3.944-24.12,10.125-33.94,18.543c-9.82,8.425-17.65,19.357-23.481,32.805
		c-5.837,13.449-8.753,29.546-8.753,48.292c0,17.93,2.915,33.487,8.753,46.662c5.831,13.182,13.661,23.982,23.481,32.4
		c9.82,8.425,21.134,14.67,33.94,18.743c12.809,4.076,26.042,6.117,39.703,6.117c13.664,0,26.823-2.041,39.491-6.117
		c12.661-4.076,23.908-10.392,33.728-18.952c9.817-8.557,17.717-19.357,23.696-32.4c5.979-13.041,8.965-28.527,8.965-46.457
		c0-18.746-2.986-34.776-8.965-48.089C1752.987,627.699,1745.086,616.76,1735.27,608.204z M1695.994,736.78
		c-8.113,10.328-19.427,15.49-33.943,15.49c-14.513,0-25.827-5.162-33.94-15.49c-8.11-10.324-12.166-26.489-12.166-48.498
		c0-22.005,4.056-38.167,12.166-48.495c8.113-10.324,19.427-15.487,33.94-15.487c14.516,0,25.83,5.162,33.943,15.487
		c8.11,10.328,12.166,26.489,12.166,48.495C1708.16,710.291,1704.104,726.456,1695.994,736.78z"/>
	<path fill="#FFFFFF" d="M1913.096,583.039c-15.242,0-28.199,3.131-38.865,9.392c-10.668,6.268-19.607,13.208-26.807,20.826h-1.247
		l-2.89-25.727h-49.481c0.832,18.785,1.247,39.343,1.247,61.66v139.254h56.113V654.908c4.706-7.894,10.871-14.355,18.495-19.398
		c7.618-5.034,16.271-7.554,25.975-7.554c11.912,0,20.019,4.021,24.313,12.047c4.294,8.033,6.445,18.72,6.445,32.056v116.388h56.527
		V667.569c0-27.219-5.892-48.115-17.666-62.686C1953.474,590.326,1936.091,583.039,1913.096,583.039z"/>
	<path fill="#FFFFFF" d="M2140.484,683.001c-7.226-4.928-15.098-9.032-23.609-12.314c-8.524-3.285-16.396-6.425-23.613-9.44
		c-7.223-3.009-13.211-6.155-17.978-9.44c-4.764-3.285-7.146-7.39-7.146-12.314c0-6.017,2.523-10.469,7.579-13.339
		c5.05-2.874,11.761-4.31,20.144-4.31c9.241,0,18.91,1.231,29.025,3.693c10.106,2.462,18.196,5.066,24.262,7.801l7.364-39.819
		c-7.512-3.282-16.679-6.017-27.511-8.209c-10.829-2.186-22.169-3.282-34.008-3.282c-12.131,0-23.252,1.437-33.362,4.31
		c-10.112,2.874-18.842,6.978-26.207,12.314c-7.364,5.336-13.147,11.906-17.332,19.704c-4.188,7.801-6.281,16.766-6.281,26.888
		c0,10.402,2.382,19.026,7.149,25.859c4.764,6.847,10.755,12.591,17.978,17.242c7.213,4.658,15.014,8.557,23.394,11.697
		c8.373,3.15,16.171,6.3,23.394,9.44c7.216,3.15,13.214,6.503,17.978,10.058c4.767,3.561,7.149,8.074,7.149,13.545
		c0,6.3-2.533,11.224-7.579,14.779c-5.059,3.561-13.073,5.339-24.046,5.339c-4.915,0-10.183-0.411-15.811-1.231
		c-5.632-0.823-11.263-1.913-16.894-3.285c-5.631-1.366-11.044-2.874-16.245-4.516c-5.198-1.643-9.531-3.282-12.999-4.924
		l-7.361,41.05c8.373,3.835,18.842,6.843,31.407,9.032c12.565,2.186,25.052,3.282,37.476,3.282c26.859,0,48.373-5.542,64.55-16.628
		c16.168-11.083,24.262-27.158,24.262-48.231c0-10.675-2.382-19.562-7.149-26.682C2153.698,693.949,2147.7,687.926,2140.484,683.001
		z"/>
	<rect x="2193.369" y="588.233" fill="#FFFFFF" width="56.112" height="200.217"/>
	<path fill="#FFFFFF" d="M2219.672,493.919c-9.241,0-17.065,3.054-23.468,9.145c-6.409,6.098-9.611,13.442-9.611,22.028
		c0,8.872,3.201,16.21,9.611,22.031c6.403,5.818,14.227,8.727,23.468,8.727c9.534,0,17.499-2.909,23.915-8.727
		c6.403-5.821,9.608-13.156,9.608-22.031c0-8.586-3.205-15.93-9.608-22.028C2237.174,496.972,2229.206,493.919,2219.672,493.919z"/>
	<path fill="#FFFFFF" d="M2404.936,746.619c-10.643,0-34.371,0-55.605,0c-8.1,0-14.664-6.564-14.664-14.664
		c0-7.499,5.651-13.613,12.912-14.487c7.943,1.569,16.502,2.417,25.647,2.417c54.579,0,88.969-29.675,88.969-68.337
		c0-13.982-4.519-26.779-12.844-37.431c11.996-14.149,22.401-19.974,28.53-23.317l4.201-32.461l-32.462,0.765
		c-10.816,10.366-19.173,22.851-25.284,35.036c-13.873-6.94-31.131-10.929-51.111-10.929c-54.579,0-88.969,29.675-88.969,68.337
		c0,25.204,14.625,46.582,39.922,58.414c-21.247,5.458-34.194,21.083-34.194,38.18c0,15.474,11.578,27.216,29.556,32.471
		c-25.551,4.587-45.216,19.36-45.216,41.619c0,40.481,50.028,52.32,91.656,52.32c89.747,0,116.539-38.961,116.539-74.09
		C2482.52,757.439,2437.828,746.619,2404.936,746.619z M2373.223,615.677c20.607,0,37.312,13.867,37.312,35.875
		s-16.705,35.875-37.312,35.875s-37.312-13.867-37.312-35.875S2352.616,615.677,2373.223,615.677z M2375.657,840.847
		c-31.706,0-51.683-13.484-51.683-30.118c0-9.511,6.554-17.981,18.077-23.5h60.609c13.748,0,25.969,13.989,25.969,23.5
		C2428.625,827.363,2407.363,840.847,2375.657,840.847z"/>
	<rect x="2805.676" y="504.114" fill="#02AAE9" width="60.568" height="284.134"/>
	<path fill="#02AAE9" d="M2717.918,788.447l63.473-0.203L2672.837,504.15h-70.362l-108.082,284.294h61.574l20.858-65.113h119.38
		L2717.918,788.447z M2624.301,591.062l11.578-33.992h1.103l11.029,33.992l30.877,87.706h-84.36L2624.301,591.062z"/>
	<path fill="#03246F" d="M1227.718,685.386l-48.883-195.138l-0.119-0.225c-9.383-35.676-26.303-69.934-50.947-100.354l-0.894-1.103
		L954.324,285.145l-0.241-0.074c-31.86-18.592-68.047-30.851-106.986-34.937l-1.411-0.148l-194.187,48.642l-0.955,0.241
		l-0.247,0.132c-35.669,9.383-69.918,26.296-100.329,50.934l-1.106,0.894L445.946,522.536l-0.501,0.842l-0.074,0.244
		c-18.592,31.864-30.854,68.05-34.936,106.989l-0.148,1.411L459.17,827.16l0.119,0.225c9.383,35.676,26.303,69.934,50.947,100.354
		l0.894,1.102l172.548,103.421l0.247,0.077c31.86,18.592,68.047,30.851,106.982,34.933l1.411,0.148l195.135-48.883l0.219-0.116
		c35.682-9.383,69.947-26.306,100.367-50.953l1.103-0.894l103.424-172.555l0.074-0.247c18.588-31.86,30.848-68.044,34.93-106.976
		L1227.718,685.386z M896.691,735.726c-18.813,18.813-43.782,30.112-70.317,31.822l0.019,0.376
		c-2.305,0.061-4.596,0.177-6.917,0.177c-26.605,0-52.255-9.665-72.226-27.219l-0.254,0.28c-1.675-1.585-3.375-3.128-5.014-4.767
		c-18.813-18.813-30.112-43.786-31.822-70.317l-0.376,0.019c-0.061-2.305-0.174-4.596-0.174-6.917
		c0-26.605,9.665-52.255,27.219-72.226l-0.28-0.254c1.585-1.675,3.124-3.375,4.767-5.014c18.817-18.813,43.786-30.115,70.32-31.825
		l-0.019-0.376c2.305-0.061,4.596-0.177,6.917-0.177c26.602,0,52.252,9.666,72.226,27.219l0.26-0.286
		c1.675,1.588,3.375,3.137,5.011,4.773c18.813,18.817,30.112,43.789,31.819,70.317l0.379-0.019c0.061,2.305,0.174,4.596,0.174,6.917
		c0,26.602-9.665,52.252-27.219,72.226l0.286,0.26C899.876,732.389,898.327,734.087,896.691,735.726z"/>
	<path fill="#00E7FF" d="M1116.165,400.883l-89.435-53.605c16.798,20.472,30.587,43.4,40.671,67.993
		c13.24,32.236,19.955,66.398,19.955,101.534c0,147.428-120.171,267.368-267.882,267.368c-3.526,0-7.036-0.148-10.524-0.44
		c35.162,17.277,74.261,26.152,114.35,25.58c65.791-0.926,127.651-27.065,174.188-73.602
		C1188.468,644.725,1196.391,501.029,1116.165,400.883z"/>
	<path fill="#00E7FF" d="M829.052,533.677c-35.158-17.277-74.132-26.161-114.353-25.58c-65.788,0.926-127.647,27.065-174.184,73.602
		c-90.981,90.982-98.905,234.681-18.678,334.827l89.432,53.605c-16.798-20.472-30.584-43.397-40.671-67.993
		c-13.24-32.24-19.951-66.401-19.951-101.534c0-147.428,120.171-267.368,267.882-267.368
		C822.051,533.236,825.564,533.384,829.052,533.677z"/>
	<path fill="#1878DE" d="M969.605,554.406c-0.926-65.791-27.065-127.651-73.602-174.188
		c-90.975-90.975-234.675-98.905-334.827-18.678l-53.605,89.435c20.472-16.798,43.4-30.584,67.989-40.674
		c32.243-13.24,66.405-19.951,101.537-19.951c147.428,0,267.371,120.171,267.371,267.882c0,3.526-0.148,7.036-0.444,10.527
		C961.302,633.597,970.17,594.601,969.605,554.406z"/>
	<path fill="#1878DE" d="M1130.427,866.43c-20.472,16.798-43.4,30.588-67.993,40.677c-32.236,13.24-66.402,19.951-101.537,19.951
		c-147.425,0-267.368-120.171-267.368-267.882c0-3.526,0.148-7.039,0.444-10.53c-17.277,35.158-26.145,74.161-25.58,114.356
		c0.926,65.784,27.068,127.651,73.598,174.188c90.985,90.985,234.688,98.902,334.83,18.678L1130.427,866.43z"/>
	<path fill="#1DA1EB" d="M1070.371,516.232c0-128.666-96.005-235.88-223.55-249.965l-101.145,25.339
		c26.351,2.597,52.31,9.058,76.835,19.315c32.163,13.439,61.066,32.85,85.906,57.691c50.526,50.523,78.298,117.734,78.198,189.25
		c-0.096,71.461-27.997,138.663-78.561,189.227c-2.491,2.494-5.079,4.873-7.753,7.133c37.074-12.645,70.921-33.95,98.947-62.773
		C1045.109,644.272,1070.371,582.049,1070.371,516.232z"/>
	<path fill="#1DA1EB" d="M567.631,801.176c0,128.666,96.005,235.88,223.55,249.965l101.145-25.339
		c-26.354-2.597-52.313-9.058-76.838-19.315c-32.159-13.439-61.059-32.847-85.903-57.691
		c-104.247-104.244-104.086-274.028,0.36-378.477c2.491-2.494,5.079-4.873,7.753-7.129c-37.077,12.645-70.918,33.95-98.943,62.773
		C592.889,673.137,567.631,735.359,567.631,801.176z"/>
	<path fill="#055ECE" d="M718.158,491.087c71.458,0.096,138.666,27.997,189.227,78.561c2.491,2.491,4.87,5.079,7.129,7.75
		c-12.648-37.077-33.95-70.918-62.773-98.94c-47.173-45.865-109.396-71.123-175.213-71.123
		c-128.663,0-235.877,96.009-249.965,223.55l25.339,101.142c2.6-26.354,9.058-52.313,19.315-76.835
		c13.442-32.166,32.85-61.069,57.691-85.906c50.433-50.436,117.5-78.198,188.874-78.198
		C717.907,491.087,718.029,491.087,718.158,491.087z"/>
	<path fill="#055ECE" d="M730.616,747.76c-2.494-2.494-4.873-5.082-7.133-7.756c12.645,37.077,33.95,70.924,62.773,98.947
		c47.173,45.865,109.396,71.123,175.213,71.123c128.666,0,235.88-96.009,249.968-223.55l-25.339-101.142
		c-2.6,26.354-9.058,52.313-19.315,76.835c-13.439,32.159-32.847,61.062-57.691,85.906
		c-52.053,52.053-120.466,78.076-188.906,78.079C851.565,826.206,782.907,800.054,730.616,747.76z"/>
</g>
</svg>
