<?xml version="1.0" encoding="iso-8859-1"?>
<!-- Generator: Adobe Illustrator 30.3.0, SVG Export Plug-In . SVG Version: 9.03 Build 0)  -->
<svg version="1.1" id="Camada_1" xmlns="http://www.w3.org/2000/svg" xmlns:xlink="http://www.w3.org/1999/xlink" x="0px" y="0px"
	 viewBox="0 0 4648.161 3667.193" enable-background="new 0 0 4648.161 3667.193" xml:space="preserve">
<rect x="0.929" y="-15.996" fill="#05388B" width="4646.303" height="3699.185"/>
<g>
	<g>
		<g>
			<path fill="#FFFFFF" d="M631.595,2687.371c20.112-20.54,44.309-36.107,72.622-46.728c28.301-10.608,59.583-15.918,93.851-15.918
				c31.282,0,60.508,2.566,87.705,7.704c27.178,5.138,51.566,11.808,73.178,20.029l21.229-112.974
				c-18.625-8.214-44.519-15.401-77.652-21.567c-33.152-6.166-70.58-9.242-112.285-9.242c-58.102,0-110.804,8.904-158.093,26.699
				c-47.309,17.814-87.335,42.802-120.104,74.971c-32.782,32.188-58.095,70.867-75.967,116.057
				c-17.878,45.189-26.814,95.173-26.814,149.943c0,49.99,7.627,96.539,22.908,139.679c15.255,43.134,38.162,80.62,68.71,112.457
				c30.535,31.837,69.074,56.838,115.636,74.971c46.536,18.133,100.726,27.216,162.561,27.216c41.711,0,79.886-2.917,114.519-8.725
				c34.639-5.808,81.003-21.057,81.003-21.057l-7.308-111.206c0,0-55.676,24.944-169.219,24.944
				c-118.597,0-230.154-92.888-230.154-244.439c0-39.7,5.585-74.971,16.761-105.781
				C595.846,2733.588,611.483,2707.917,631.595,2687.371z"/>
			<path fill="#FFFFFF" d="M1444.287,2775.018c-24.267-21.146-52.051-36.579-83.339-46.326
				c-31.301-9.721-63.821-14.597-97.579-14.597s-66.457,4.876-98.109,14.597c-31.646,9.74-59.602,25.02-83.869,45.821
				c-24.261,20.814-43.613,47.832-58.019,81.061c-14.425,33.229-21.625,73.005-21.625,119.331c0,44.309,7.2,82.746,21.625,115.304
				c14.406,32.571,33.758,59.257,58.019,80.065c24.267,20.814,52.223,36.247,83.869,46.313
				c31.652,10.072,64.351,15.114,98.109,15.114s66.284-5.042,97.579-15.114c31.288-10.072,59.078-25.678,83.339-46.823
				c24.261-21.14,43.779-47.826,58.549-80.058c14.77-32.22,22.148-70.491,22.148-114.793c0-46.326-7.378-85.924-22.148-118.827
				C1488.066,2823.201,1468.548,2796.164,1444.287,2775.018z M1347.238,3092.73c-20.048,25.518-48.004,38.271-83.869,38.271
				s-63.821-12.753-83.863-38.271c-20.042-25.505-30.063-65.455-30.063-119.835c0-54.375,10.021-94.311,30.063-119.829
				c20.048-25.505,48.004-38.264,83.863-38.264c35.871,0,63.827,12.759,83.869,38.264c20.042,25.518,30.063,65.455,30.063,119.829
				C1377.301,3027.276,1367.28,3067.219,1347.238,3092.73z"/>
			<path fill="#FFFFFF" d="M1883.692,2712.838c-37.664,0-69.68,7.742-96.034,23.207c-26.361,15.485-48.445,32.641-66.24,51.464
				h-3.076l-7.136-63.565h-122.267c2.055,46.415,3.076,97.215,3.076,152.362v344.092h138.652V2890.43
				c11.629-19.506,26.858-35.475,45.7-47.928c18.823-12.44,40.211-18.669,64.185-18.669c29.437,0,49.46,9.932,60.08,29.769
				c10.608,19.85,15.925,46.256,15.925,79.209v287.586h139.679v-298.685c0-67.261-14.559-118.897-43.651-154.889
				C1983.467,2730.843,1940.511,2712.838,1883.692,2712.838z"/>
			<path fill="#FFFFFF" d="M2445.563,2959.842c-17.852-12.172-37.301-22.314-58.338-30.427
				c-21.063-8.119-40.511-15.88-58.344-23.329c-17.846-7.436-32.647-15.217-44.424-23.329c-11.77-8.119-17.655-18.261-17.655-30.433
				c0-14.865,6.236-25.863,18.733-32.96c12.478-7.104,29.067-10.653,49.779-10.653c22.831,0,46.728,3.044,71.716,9.127
				c24.975,6.089,44.96,12.523,59.946,19.276l18.197-98.39c-18.561-8.112-41.213-14.865-67.976-20.284
				c-26.763-5.406-54.783-8.113-84.035-8.113c-29.98,0-57.457,3.549-82.433,10.646c-24.989,7.104-46.562,17.246-64.759,30.433
				s-32.482,29.418-42.822,48.687c-10.346,19.276-15.523,41.43-15.523,66.438c0,25.703,5.885,47.009,17.667,63.897
				c11.77,16.914,26.571,31.116,44.424,42.604c17.827,11.508,37.103,21.146,57.808,28.907c20.687,7.781,39.962,15.567,57.808,23.329
				c17.833,7.781,32.654,16.072,44.424,24.848c11.783,8.795,17.667,19.952,17.667,33.471c0,15.567-6.255,27.733-18.733,36.515
				c-12.498,8.802-32.297,13.193-59.417,13.193c-12.146,0-25.161-1.021-39.075-3.044c-13.914-2.03-27.829-4.73-41.749-8.119
				c-13.914-3.376-27.292-7.104-40.141-11.163c-12.848-4.053-23.552-8.113-32.118-12.166l-18.191,101.434
				c20.687,9.478,46.562,16.908,77.607,22.314c31.046,5.4,61.906,8.113,92.6,8.113c66.368,0,119.523-13.691,159.504-41.086
				c39.956-27.388,59.946-67.108,59.946-119.178c0-26.373-5.885-48.343-17.667-65.933
				C2478.21,2986.899,2463.39,2972.014,2445.563,2959.842z"/>
			<rect x="2576.236" y="2725.673" fill="#FFFFFF" width="138.652" height="494.724"/>
			<path fill="#FFFFFF" d="M2641.238,2492.627c-22.837,0-42.164,7.544-57.987,22.595c-15.842,15.07-23.75,33.216-23.75,54.432
				c0,21.925,7.908,40.052,23.75,54.432c15.823,14.374,35.15,21.567,57.987,21.567c23.559,0,43.243-7.187,59.091-21.567
				c15.823-14.38,23.737-32.514,23.737-54.432c0-21.216-7.915-39.362-23.737-54.432
				C2684.481,2500.172,2664.796,2492.627,2641.238,2492.627z"/>
			<path fill="#FFFFFF" d="M3099.019,3117.042c-26.297,0-84.928,0-137.401,0c-20.01,0-36.235-16.225-36.235-36.235
				c0-18.529,13.959-33.637,31.907-35.801c19.627,3.874,40.779,5.974,63.367,5.974c134.867,0,219.84-73.325,219.84-168.854
				c0-34.55-11.17-66.17-31.735-92.492c29.641-34.965,55.351-49.351,70.497-57.617l10.378-80.211l-80.211,1.889
				c-26.724,25.614-47.379,56.462-62.474,86.575c-34.275-17.144-76.925-27.005-126.295-27.005
				c-134.867,0-219.84,73.325-219.84,168.854c0,62.276,36.139,115.1,98.645,144.339c-52.504,13.487-84.494,52.096-84.494,94.343
				c0,38.232,28.614,67.248,73.037,80.231c-63.138,11.336-111.723,47.838-111.723,102.838c0,100.03,123.621,129.282,226.478,129.282
				c221.761,0,287.963-96.271,287.963-183.069C3290.724,3143.779,3180.296,3117.042,3099.019,3117.042z M3020.658,2793.49
				c50.921,0,92.198,34.262,92.198,88.643s-41.277,88.643-92.198,88.643c-50.921,0-92.198-34.262-92.198-88.643
				C2928.46,2827.752,2969.737,2793.49,3020.658,2793.49z M3026.671,3349.877c-78.348,0-127.712-33.318-127.712-74.422
				c0-23.501,16.193-44.43,44.666-58.063h149.758c33.975,0,64.172,34.562,64.172,58.063
				C3157.555,3316.553,3105.012,3349.877,3026.671,3349.877z"/>
		</g>
		<g>
			<rect x="4089.233" y="2517.82" fill="#02AAE9" width="149.662" height="702.086"/>
			<path fill="#02AAE9" d="M3872.387,3220.397l156.843-0.498l-268.234-701.99H3587.13l-267.065,702.488h152.151l51.541-160.889
				h294.983L3872.387,3220.397z M3641.058,2732.662l28.607-83.99h2.725l27.248,83.99l76.299,216.725h-208.447L3641.058,2732.662z"/>
		</g>
	</g>
	<g>
		<path fill="#00E7FF" stroke="#03246F" stroke-width="47.9227" stroke-miterlimit="10" d="M3026.256,1428.176
			c-245.741,245.741-641.201,250.19-892.578,13.659c51.151,44.953,118.182,72.195,191.571,72.195
			c354.234,0,642.076-286.565,642.076-640.799c0-86.173-16.997-168.299-47.813-243.36
			c-53.927-131.452-150.275-240.973-272.031-311.662l2.859,0.874l421.272,252.494
			C3275.648,823.433,3260.559,1193.873,3026.256,1428.176z"/>
		<path fill="#00E7FF" stroke="#03246F" stroke-width="47.9227" stroke-miterlimit="10" d="M1621.899,1019.548
			c245.741-245.741,641.201-250.19,892.578-13.659c-51.151-44.953-118.182-72.195-191.571-72.195
			c-354.234,0-642.076,286.565-642.076,640.799c0,86.173,16.997,168.299,47.813,243.36
			c53.928,131.446,150.275,240.973,272.031,311.662l-2.859-0.874l-421.272-252.494
			C1372.507,1624.291,1387.596,1253.851,1621.899,1019.548z"/>
		<path fill="#1878DE" stroke="#03246F" stroke-width="47.9227" stroke-miterlimit="10" d="M2528.391,521.684
			c245.741,245.741,250.19,641.201,13.659,892.578c44.953-51.151,72.195-118.182,72.195-191.571
			c0-354.234-286.565-642.076-640.799-642.076c-86.173,0-168.299,16.997-243.36,47.813
			c-131.446,53.928-240.973,150.275-311.661,272.031l0.874-2.859l252.494-421.272
			C1923.648,272.292,2294.088,287.381,2528.391,521.684z"/>
		<path fill="#1878DE" stroke="#03246F" stroke-width="47.9227" stroke-miterlimit="10" d="M2119.764,1926.04
			c-245.741-245.741-250.19-641.201-13.659-892.578c-44.953,51.151-72.201,118.182-72.201,191.571
			c0,354.234,286.565,642.076,640.799,642.076c86.179,0,168.3-16.997,243.36-47.813c131.446-53.928,240.973-150.275,311.662-272.031
			l-0.874,2.859l-252.494,421.272C2724.507,2175.439,2354.067,2160.343,2119.764,1926.04z"/>
		<path fill="#1DA1EB" stroke="#03246F" stroke-width="47.9227" stroke-miterlimit="10" d="M2965.065,871.82
			c0,347.532-276.486,630.306-621.491,640.805c67.957-4.379,134.618-32.52,186.516-84.411
			c250.483-250.483,251.383-656.647,0.9-907.131c-60.936-60.936-131.024-106.987-205.887-138.269
			c-131.082-54.815-276.652-64.14-412.732-28.027l2.642-1.404l476.425-119.344C2713.797,267.856,2965.065,540.468,2965.065,871.82z"
			/>
		<path fill="#1DA1EB" stroke="#03246F" stroke-width="47.9227" stroke-miterlimit="10" d="M1683.09,1575.904
			c0-347.532,276.486-630.306,621.491-640.805c-67.957,4.379-134.618,32.52-186.516,84.411
			c-250.483,250.483-251.383,656.647-0.9,907.131c60.936,60.936,131.024,106.987,205.887,138.269
			c131.082,54.815,276.652,64.14,412.732,28.026l-2.642,1.404l-476.425,119.344
			C1934.359,2179.875,1683.09,1907.262,1683.09,1575.904z"/>
		<path fill="#055ECE" stroke="#03246F" stroke-width="47.9227" stroke-miterlimit="10" d="M1972.036,582.875
			c347.532,0,630.306,276.487,640.812,621.491c-4.378-67.957-32.52-134.618-84.411-186.516
			c-250.483-250.483-656.647-251.383-907.131-0.9c-60.936,60.936-106.987,131.024-138.269,205.887
			c-54.815,131.082-64.14,276.652-28.026,412.732l-1.404-2.642l-119.344-476.425
			C1368.071,834.143,1640.683,582.875,1972.036,582.875z"/>
		<path fill="#055ECE" stroke="#03246F" stroke-width="47.9227" stroke-miterlimit="10" d="M2676.119,1864.849
			c-347.532,0-630.306-276.486-640.805-621.491c4.379,67.957,32.52,134.618,84.411,186.516
			c250.483,250.483,656.647,251.383,907.131,0.9c60.936-60.936,106.987-131.024,138.269-205.887
			c54.815-131.082,64.14-276.652,28.026-412.732l1.404,2.642l119.344,476.425C3280.09,1613.581,3007.478,1864.849,2676.119,1864.849
			z"/>
	</g>
</g>
</svg>
