<?xml version="1.0" encoding="iso-8859-1"?>
<!-- Generator: Adobe Illustrator 30.3.0, SVG Export Plug-In . SVG Version: 9.03 Build 0)  -->
<svg version="1.1" id="Camada_1" xmlns="http://www.w3.org/2000/svg" xmlns:xlink="http://www.w3.org/1999/xlink" x="0px" y="0px"
	 viewBox="0 0 2887.009 2240.206" enable-background="new 0 0 2887.009 2240.206" xml:space="preserve">
<g>
	<g>
		<g>
			<path fill="#03246F" d="M392.762,1650.15c12.486-12.752,27.508-22.416,45.086-29.01c17.57-6.586,36.991-9.883,58.266-9.883
				c19.421,0,37.565,1.593,54.45,4.783c16.873,3.19,32.014,7.331,45.431,12.435l13.18-70.138c-11.563-5.1-27.639-9.562-48.209-13.39
				c-20.582-3.824-43.818-5.738-69.71-5.738c-36.071,0-68.79,5.528-98.149,16.576c-29.371,11.059-54.22,26.573-74.564,46.544
				c-20.352,19.983-36.067,43.996-47.163,72.052c-11.099,28.055-16.647,59.086-16.647,93.089c0,31.035,4.735,59.934,14.222,86.717
				c9.471,26.779,23.692,50.051,42.657,69.817c18.957,19.765,42.883,35.287,71.79,46.544
				c28.891,11.258,62.533,16.896,100.923,16.896c25.892,0,49.596-1.811,71.097-5.417c21.505-3.606,50.289-13.073,50.289-13.073
				l-4.537-69.04c0,0-34.566,15.486-105.056,15.486c-73.629,0-142.887-57.667-142.887-151.755c0-24.647,3.467-46.544,10.406-65.672
				C370.563,1678.843,380.276,1662.901,392.762,1650.15z"/>
			<path fill="#03246F" d="M897.305,1704.564c-15.062-13.128-32.315-22.709-51.739-28.76c-19.433-6.035-39.622-9.062-60.58-9.062
				s-41.258,3.027-60.909,9.062c-19.646,6.047-37.003,15.533-52.068,28.447c-15.066,12.922-27.076,29.696-36.02,50.325
				c-8.955,20.629-13.425,45.324-13.425,74.084c0,27.508,4.47,51.371,13.425,71.584c8.944,20.221,20.958,36.789,36.02,49.707
				c15.066,12.922,32.422,22.503,52.068,28.752c19.65,6.253,39.951,9.383,60.909,9.383s41.151-3.13,60.58-9.383
				c19.424-6.253,36.678-15.941,51.739-29.069c15.062-13.124,27.179-29.692,36.349-49.703c9.169-20.003,13.75-43.763,13.75-71.267
				c0-28.76-4.581-53.344-13.75-73.771C924.484,1734.474,912.367,1717.692,897.305,1704.564z M837.05,1901.805
				c-12.446,15.842-29.803,23.76-52.068,23.76s-39.622-7.917-52.064-23.76c-12.443-15.834-18.664-40.636-18.664-74.397
				c0-33.757,6.221-58.551,18.664-74.393c12.446-15.834,29.803-23.756,52.064-23.756c22.27,0,39.626,7.921,52.068,23.756
				c12.443,15.842,18.664,40.636,18.664,74.393C855.714,1861.173,849.492,1885.971,837.05,1901.805z"/>
			<path fill="#03246F" d="M1170.097,1665.96c-23.383,0-43.259,4.803-59.621,14.408c-16.365,9.613-30.076,20.265-41.124,31.95h-1.91
				l-4.43-39.463h-75.907c1.276,28.816,1.91,60.354,1.91,94.591v213.623h86.079v-204.853c7.22-12.11,16.675-22.024,28.372-29.755
				c11.686-7.723,24.964-11.59,39.848-11.59c18.275,0,30.706,6.166,37.3,18.481c6.586,12.323,9.887,28.717,9.887,49.176v178.542
				h86.717v-185.433c0-41.758-9.039-73.815-27.1-96.16C1232.044,1677.139,1205.376,1665.96,1170.097,1665.96z"/>
			<path fill="#03246F" d="M1518.927,1819.308c-11.083-7.557-23.157-13.853-36.218-18.89c-13.076-5.04-25.151-9.859-36.222-14.483
				c-11.075-4.616-20.269-9.447-27.579-14.483c-7.307-5.04-10.96-11.337-10.96-18.894c0-9.229,3.871-16.056,11.63-20.463
				c7.747-4.41,18.046-6.614,30.904-6.614c14.174,0,29.01,1.89,44.524,5.666c15.506,3.78,27.912,7.775,37.217,11.967l11.297-61.083
				c-11.523-5.036-25.586-9.229-42.201-12.593c-16.615-3.356-34.011-5.036-52.171-5.036c-18.612,0-35.671,2.203-51.177,6.61
				c-15.514,4.41-28.907,10.707-40.204,18.894s-20.166,18.264-26.585,30.227c-6.423,11.967-9.637,25.721-9.637,41.246
				c0,15.957,3.654,29.184,10.969,39.669c7.307,10.501,16.496,19.318,27.579,26.45c11.068,7.145,23.034,13.124,35.889,17.946
				c12.843,4.83,24.81,9.665,35.889,14.483c11.072,4.83,20.273,9.978,27.58,15.426c7.315,5.46,10.968,12.387,10.968,20.78
				c0,9.665-3.883,17.217-11.63,22.67c-7.759,5.464-20.051,8.191-36.888,8.191c-7.537,0-15.62-0.634-24.259-1.89
				c-8.638-1.26-17.277-2.936-25.919-5.04c-8.638-2.096-16.944-4.41-24.921-6.931c-7.977-2.516-14.622-5.036-19.94-7.553
				l-11.293,62.973c12.843,5.884,28.907,10.497,48.181,13.853c19.274,3.352,38.433,5.036,57.489,5.036
				c41.203,0,74.203-8.5,99.025-25.507c24.806-17.003,37.217-41.663,37.217-73.989c0-16.373-3.653-30.013-10.968-40.933
				C1539.191,1836.106,1529.994,1826.865,1518.927,1819.308z"/>
			<rect x="1600.052" y="1673.929" fill="#03246F" width="86.079" height="307.14"/>
			<path fill="#03246F" d="M1640.404,1529.248c-14.178,0-26.177,4.684-36,14.028c-9.835,9.356-14.745,20.621-14.745,33.793
				c0,13.611,4.91,24.865,14.745,33.793c9.823,8.924,21.822,13.39,36,13.39c14.626,0,26.846-4.466,36.686-13.39
				c9.823-8.928,14.737-20.185,14.737-33.793c0-13.172-4.914-24.437-14.737-33.793
				C1667.25,1533.927,1655.029,1529.248,1640.404,1529.248z"/>
			<path fill="#03246F" d="M1924.608,1916.903c-16.326,0-52.726,0-85.302,0c-12.423,0-22.496-10.073-22.496-22.495
				c0-11.504,8.666-20.883,19.809-22.226c12.185,2.405,25.317,3.709,39.341,3.709c83.729,0,136.483-45.522,136.483-104.83
				c0-21.449-6.934-41.08-19.702-57.422c18.402-21.707,34.363-30.639,43.767-35.77l6.443-49.798l-49.798,1.173
				c-16.591,15.902-29.414,35.053-38.786,53.748c-21.279-10.644-47.757-16.766-78.407-16.766
				c-83.729,0-136.483,45.522-136.483,104.83c0,38.663,22.436,71.457,61.242,89.61c-32.596,8.373-52.457,32.343-52.457,58.571
				c0,23.736,17.764,41.75,45.34,49.81c-39.198,7.034-69.361,29.7-69.361,63.845c0,62.102,76.747,80.262,140.604,80.262
				c137.676,0,178.776-59.768,178.776-113.655C2043.628,1933.502,1975.067,1916.903,1924.608,1916.903z M1875.959,1716.032
				c31.613,0,57.24,21.271,57.24,55.032c0,33.761-25.626,55.032-57.24,55.032s-57.24-21.271-57.24-55.032
				C1818.72,1737.303,1844.349,1716.032,1875.959,1716.032z M1879.692,2061.454c-48.641,0-79.287-20.684-79.287-46.203
				c0-14.59,10.053-27.583,27.73-36.047h92.974c21.093,0,39.84,21.457,39.84,36.047
				C1960.948,2040.765,1928.332,2061.454,1879.692,2061.454z"/>
		</g>
		<g>
			<rect x="2539.362" y="1544.884" fill="#02AAE9" width="92.915" height="435.876"/>
			<path fill="#02AAE9" d="M2404.741,1981.069l97.373-0.309l-166.528-435.816h-107.94l-165.802,436.125h94.46l31.998-99.885h183.135
				L2404.741,1981.069z M2261.126,1678.268l17.76-52.144h1.692l16.916,52.144l47.369,134.549h-129.41L2261.126,1678.268z"/>
		</g>
	</g>
	<g>
		<path fill="#00E7FF" stroke="#03246F" stroke-width="29.7518" stroke-miterlimit="10" d="M1879.434,868.404
			c-152.563,152.563-398.077,155.325-554.139,8.48c31.756,27.908,73.371,44.821,118.933,44.821
			c219.919,0,398.62-177.908,398.62-397.827c0-53.499-10.552-104.485-29.684-151.085c-33.48-81.609-93.295-149.603-168.885-193.489
			l1.775,0.543l261.538,156.756C2034.268,492.962,2024.896,722.942,1879.434,868.404z"/>
		<path fill="#00E7FF" stroke="#03246F" stroke-width="29.7518" stroke-miterlimit="10" d="M1007.572,614.716
			c152.563-152.563,398.077-155.325,554.139-8.48c-31.756-27.908-73.371-44.821-118.933-44.821
			c-219.919,0-398.62,177.908-398.62,397.827c0,53.499,10.552,104.485,29.684,151.085c33.48,81.609,93.295,149.603,168.885,193.489
			l-1.775-0.543l-261.538-156.756C852.738,990.159,862.109,760.178,1007.572,614.716z"/>
		<path fill="#1878DE" stroke="#03246F" stroke-width="29.7518" stroke-miterlimit="10" d="M1570.349,305.627
			c152.563,152.563,155.325,398.077,8.48,554.139c27.908-31.756,44.821-73.371,44.821-118.933
			c0-219.919-177.908-398.62-397.827-398.62c-53.499,0-104.485,10.552-151.085,29.684c-81.609,33.48-149.603,93.295-193.489,168.885
			l0.543-1.775l156.756-261.538C1194.907,150.797,1424.883,160.164,1570.349,305.627z"/>
		<path fill="#1878DE" stroke="#03246F" stroke-width="29.7518" stroke-miterlimit="10" d="M1316.657,1177.493
			c-152.563-152.563-155.325-398.077-8.48-554.139c-27.908,31.756-44.821,73.371-44.821,118.933
			c0,219.919,177.908,398.62,397.827,398.62c53.503,0,104.485-10.552,151.085-29.684c81.609-33.48,149.607-93.295,193.489-168.885
			l-0.543,1.775l-156.756,261.538C1692.099,1332.323,1462.123,1322.956,1316.657,1177.493z"/>
		<path fill="#1DA1EB" stroke="#03246F" stroke-width="29.7518" stroke-miterlimit="10" d="M1841.445,523.002
			c0,215.758-171.651,391.313-385.84,397.831c42.19-2.718,83.575-20.189,115.794-52.405
			c155.507-155.508,156.066-407.666,0.559-563.174c-37.831-37.831-81.344-66.421-127.821-85.841
			c-81.379-34.031-171.754-39.82-256.236-17.4l1.641-0.872l295.779-74.092C1685.45,148.043,1841.445,317.285,1841.445,523.002z"/>
		<path fill="#1DA1EB" stroke="#03246F" stroke-width="29.7518" stroke-miterlimit="10" d="M1045.561,960.118
			c0-215.758,171.651-391.313,385.84-397.831c-42.19,2.718-83.575,20.189-115.794,52.405
			c-155.507,155.507-156.066,407.666-0.559,563.174c37.831,37.831,81.344,66.421,127.821,85.841
			c81.38,34.031,171.754,39.82,256.236,17.4l-1.641,0.872l-295.779,74.092C1201.556,1335.077,1045.561,1165.835,1045.561,960.118z"
			/>
		<path fill="#055ECE" stroke="#03246F" stroke-width="29.7518" stroke-miterlimit="10" d="M1224.943,343.616
			c215.759,0,391.313,171.651,397.835,385.84c-2.718-42.19-20.189-83.575-52.405-115.794
			c-155.507-155.507-407.666-156.066-563.174-0.559c-37.831,37.831-66.421,81.344-85.841,127.821
			c-34.031,81.379-39.82,171.754-17.4,256.236l-0.872-1.641l-74.092-295.779C849.984,499.611,1019.23,343.616,1224.943,343.616z"/>
		<path fill="#055ECE" stroke="#03246F" stroke-width="29.7518" stroke-miterlimit="10" d="M1662.063,1139.504
			c-215.758,0-391.312-171.651-397.835-385.84c2.718,42.19,20.189,83.575,52.405,115.795
			c155.507,155.508,407.666,156.066,563.174,0.559c37.831-37.831,66.421-81.344,85.841-127.821
			c34.031-81.38,39.82-171.754,17.4-256.236l0.872,1.641l74.092,295.779C2037.022,983.509,1867.776,1139.504,1662.063,1139.504z"/>
	</g>
</g>
</svg>
